<?xml version="1.0" standalone="no"?>
<!DOCTYPE svg PUBLIC "-//W3C//DTD SVG 20010904//EN"
 "http://www.w3.org/TR/2001/REC-SVG-20010904/DTD/svg10.dtd">
<svg version="1.0" xmlns="http://www.w3.org/2000/svg"
 width="1024.000000pt" height="1024.000000pt" viewBox="0 0 1024.000000 1024.000000"
 preserveAspectRatio="xMidYMid meet">

<g transform="translate(0.000000,1024.000000) scale(0.100000,-0.100000)"
fill="#000000" stroke="none">
<path d="M4860 8563 c-87 -5 -346 -42 -450 -64 -533 -114 -1059 -371 -1497
-733 -144 -120 -379 -356 -483 -486 -106 -133 -276 -390 -358 -543 -213 -392
-346 -822 -394 -1277 -18 -170 -15 -546 6 -719 89 -743 415 -1444 934 -2010
172 -187 430 -400 667 -551 134 -85 390 -214 550 -277 424 -168 864 -242 1360
-230 545 13 968 113 1440 341 954 461 1666 1385 1880 2441 49 240 59 352 59
645 0 304 -13 444 -65 697 -140 677 -482 1296 -985 1783 -543 525 -1226 860
-1959 959 -190 26 -500 36 -705 24z m920 -873 c40 -22 50 -61 50 -204 0 -74
-4 -146 -10 -160 -5 -14 -24 -35 -42 -46 -29 -17 -51 -20 -170 -20 l-138 0 0
-175 c0 -132 3 -176 13 -179 6 -2 64 -16 127 -31 386 -93 705 -274 976 -556
409 -427 608 -984 555 -1559 -22 -236 -95 -497 -202 -719 -302 -630 -881
-1044 -1579 -1131 -127 -15 -405 -12 -529 6 -497 73 -953 322 -1260 689 -306
367 -481 845 -481 1316 0 461 137 866 418 1239 78 103 269 292 375 372 242
180 535 311 805 358 l72 13 0 179 0 178 -141 0 c-213 0 -219 6 -219 223 0 124
3 146 20 175 11 17 21 33 22 34 25 18 1304 16 1338 -2z"/>
<path d="M4965 6583 c-189 -23 -340 -63 -493 -129 -447 -195 -787 -564 -936
-1017 -131 -400 -103 -840 78 -1223 229 -483 713 -848 1231 -927 222 -34 378
-31 600 14 667 134 1201 686 1316 1360 18 107 21 150 16 314 -4 139 -11 215
-26 283 -158 714 -753 1240 -1493 1321 -92 10 -228 12 -293 4z m-25 -344 c292
-159 498 -405 532 -636 10 -68 9 -113 -6 -272 -18 -197 -16 -272 10 -389 11
-50 57 -162 67 -162 1 0 2 42 3 93 2 203 94 398 277 580 49 49 90 87 92 85 2
-2 -7 -34 -20 -70 -66 -183 -38 -330 114 -585 26 -46 59 -115 72 -155 21 -65
24 -90 23 -233 -1 -167 -17 -263 -63 -384 -51 -134 -179 -296 -306 -386 -83
-59 -210 -121 -297 -145 -116 -32 -122 -29 -66 31 152 162 232 400 195 580
-30 147 -76 215 -265 388 -169 155 -244 273 -276 433 -19 91 -20 134 -5 212 6
32 8 60 6 63 -10 9 -137 -195 -165 -267 -42 -106 -55 -184 -50 -298 4 -80 12
-118 46 -217 44 -127 70 -250 59 -278 -15 -39 -123 -4 -190 61 -50 48 -76 99
-86 170 l-7 57 -18 -40 c-128 -292 -80 -583 133 -809 25 -27 39 -47 31 -44 -8
3 -42 13 -75 23 -138 40 -287 133 -385 242 -60 68 -140 224 -166 328 -26 103
-24 323 4 426 69 253 206 486 428 729 113 123 221 268 262 352 42 85 72 204
72 283 0 66 -29 194 -55 244 -8 17 -12 31 -8 31 5 0 42 -19 83 -41z"/>
</g>
</svg>
